# xmcd
# 
# Track frame offsets:
#     150
#     13970
#     28827
#     45214
#     61061
#     74201
#     92213
#     106216
#     120243
#     136526
#     153217
#     170730
# 
# Disc length: 2512
# 
# Revision: 1
# Processed by: cddbd v1.5.2PL0 Copyright (c) Steve Scherf et al.
# Submitted via: BonkEnc v1.0.15
# 
DISCID=9709ce0c
DTITLE=Dan and Shay - Where It All Began
DYEAR=2014
DGENRE=Country
TTITLE0=Show You Off
TTITLE1=Stop Drop and Roll
TTITLE2=19 You and Me
TTITLE3=What You Do To Me
TTITLE4=Can't Say No
TTITLE5=First Time Feeling
TTITLE6=Nothin' Like You
TTITLE7=Somewhere Only We Know
TTITLE8=Parking Brake
TTITLE9=I Heard Goodbye
TTITLE10=Party Girl
TTITLE11=Close Your Eyes
EXTD=
EXTT0=
EXTT1=
EXTT2=
EXTT3=
EXTT4=
EXTT5=
EXTT6=
EXTT7=
EXTT8=
EXTT9=
EXTT10=
EXTT11=
PLAYORDER=
